# xmcd
#
# Track frame offsets:
#	150
#	15456
#	32358
#	53198
#	71844
#	91215
#	117226
#
# Disc length: 1755 seconds
#
# Revision: 1
# Processed by: cddbd v1.5.2PL0 Copyright (c) Steve Scherf et al.
# Submitted via: audiograbber 1.83.01
#
DISCID=5006d907
DTITLE=Melody Gardot - Some Lessons
DYEAR=2005
DGENRE=Blues
TTITLE0=Wicked Ride
TTITLE1=Cry Wolf
TTITLE2=Down My Avenue
TTITLE3=Don't You Worry Baby
TTITLE4=Momma
TTITLE5=Some Lessons
TTITLE6=Goodnite
EXTD=
EXTT0=
EXTT1=
EXTT2=
EXTT3=
EXTT4=
EXTT5=
EXTT6=
PLAYORDER=
